<svg width="348" height="239" viewBox="0 0 348 239" fill="none" xmlns="http://www.w3.org/2000/svg">
<path fill-rule="evenodd" clip-rule="evenodd" d="M51.3857 21.8115C51.3904 21.9091 52.1585 38.5401 31.0352 43.2627C29.7996 46.216 28.7518 49.2016 27.8799 52.2207C27.8314 53.8249 27.6616 55.55 27.3418 57.4033C27.1104 57.2529 26.8834 57.1009 26.6611 56.9473C25.7202 61.0851 25.0864 65.2833 24.7256 69.542C28.0742 51.7967 44.1035 47.5293 44.1035 47.5293C44.1035 47.5293 47.4307 65.923 24.4639 73.6396C24.1897 79.8304 24.4572 86.1464 25.1631 92.5879C26.7151 77.0775 39.7715 70.9229 39.7715 70.9229C39.7715 70.9229 45.9002 87.5469 25.9824 98.8828C26.9103 105.07 28.2006 111.371 29.7656 117.784C31.2191 121.495 32.7726 124.988 34.4072 128.278C26.4921 104.199 44.5176 89.8271 44.5176 89.8271C44.5176 89.8271 57.0264 108.879 34.7266 128.924C39.2666 137.929 44.4374 145.39 49.9482 151.567C37.3524 130.756 50.7734 112.755 50.7734 112.755C50.7825 112.763 67.5222 127.858 51.1729 152.909C57.6476 159.885 64.5546 165.145 71.4385 169.102C54.6461 150.674 63.3669 128.814 63.3789 128.784C63.3789 128.784 84.8479 139.989 75.0391 171.058C100.048 183.863 123.675 180.3 123.78 180.284C130.635 173.784 136.022 174.284 137.001 178.284C137.001 178.284 150.223 172.284 165.892 177.784V179.784C153.484 175.886 146.657 179.162 141.248 181.662C143.833 191.933 136.705 195.567 136.705 195.567C136.685 195.513 134.193 188.935 138.467 182.879C136.649 183.59 134.921 184.019 133.084 183.784C133.084 184.388 132.547 185.444 131.625 186.436C131.643 186.462 131.659 186.489 131.677 186.516C131.715 186.485 131.753 186.454 131.791 186.424L132.104 186.815L132.415 187.208C132.346 187.263 132.277 187.319 132.208 187.375C136.259 194.396 131.812 198.792 131.812 198.792C131.788 198.762 128.807 194.962 129.831 189.872C129.665 189.978 129.501 190.087 129.337 190.198C126.725 193.303 125.167 196.964 124.375 200.851C124.49 200.843 124.607 200.836 124.726 200.832C124.54 201.333 124.34 201.793 124.131 202.218C123.915 203.594 123.788 204.993 123.738 206.401C130.671 208.761 129.882 214.339 129.882 214.339C129.864 214.334 125.272 213.207 123.717 208.36C123.733 209.552 123.8 210.745 123.91 211.931C124.052 213.449 124.266 214.952 124.533 216.421C131.382 216.324 132.583 221.527 132.595 221.579C132.572 221.582 128.11 222.187 124.959 218.538C125.556 221.238 126.318 223.783 127.136 226.047C132.091 226.404 132.988 230.313 132.995 230.346C132.961 230.35 130.69 230.651 128.443 229.339C128.969 230.544 129.495 231.614 129.992 232.521C135.304 233.776 135.379 238.093 135.38 238.119C135.376 238.119 130.654 237.748 129.032 232.848C128.322 231.535 127.565 229.911 126.83 228.057C126.323 227.521 125.848 226.866 125.44 226.061C125.655 226.043 125.865 226.032 126.068 226.026C125.618 224.754 125.186 223.4 124.791 221.984C123.866 226.458 120.282 227.025 120.282 227.025C120.282 227.025 119.996 222.369 124.274 220.003C123.656 217.462 123.171 214.766 122.915 212.021C122.894 211.797 122.875 211.572 122.857 211.348C121.844 216.887 117.475 217.607 117.427 217.615C117.427 217.615 117.06 211.671 122.73 208.955C122.688 207.378 122.728 205.794 122.873 204.224C120.016 207.797 116.354 206.979 116.354 206.979C116.36 206.957 117.927 201.927 123.332 200.978C123.912 197.962 124.932 195.054 126.528 192.407C117.549 200.345 109.635 214.65 87.5449 209.785C87.5449 209.785 96.5859 182.576 128.728 189.367C129.309 188.692 129.939 188.042 130.622 187.42C130.637 187.386 130.652 187.352 130.668 187.317C128.368 189.126 124.696 190.022 120.843 185.784C120.843 185.784 98.4807 188.828 74.2773 176.225C50.5099 191.204 30.416 174.707 30.416 174.707C30.416 174.707 43.3391 160.884 64.4375 170.227C60.0227 167.112 55.6373 163.401 51.4062 158.978C30.6032 170.543 13.7432 156.09 13.7432 156.09C13.7987 156.033 26.9797 142.589 47.4775 154.604C44.0339 150.529 40.725 145.934 37.6201 140.754C13.3463 144.091 2.82875 123.608 2.8252 123.602C2.88217 123.577 20.0033 116.273 34.4795 135.176C31.7079 129.931 29.1363 124.152 26.8281 117.784C26.8271 117.78 26.24 115.271 25.5195 111.08C5.84693 110.057 0.0240608 92.3654 0 92.292C0.0766397 92.2732 15.4322 88.536 24.8281 106.737C24.0605 101.524 23.3002 94.8484 23.0225 87.5635C3.57889 78.1473 5.52051 57.9414 5.52051 57.9414C5.52051 57.9414 20.2326 60.7209 22.9336 79.4297C23.0686 71.7448 23.8674 63.7548 25.8164 56.3359C13.1162 46.8439 16.4343 32.2516 16.4521 32.1738C16.5235 32.1978 27.2136 35.8116 27.8633 49.915C28.7461 47.6018 29.7706 45.3796 30.9531 43.2793C30.6465 43.3472 30.3354 43.4147 30.0195 43.4775C33.8393 24.2622 51.3857 21.8115 51.3857 21.8115ZM129.845 189.615C129.858 189.618 129.871 189.621 129.884 189.624C129.889 189.602 129.893 189.579 129.898 189.557C129.881 189.576 129.863 189.596 129.845 189.615Z" fill="white"/>
<path d="M296.065 21.8115C296.065 21.8115 313.612 24.2622 317.432 43.4775C317.115 43.4146 316.804 43.3473 316.497 43.2793C317.68 45.3797 318.704 47.6018 319.587 49.915C320.237 35.8116 330.928 32.1978 330.999 32.1738C331.017 32.2516 334.335 46.8439 321.634 56.3359C323.583 63.7549 324.382 71.7447 324.517 79.4297C327.218 60.7207 341.931 57.9414 341.931 57.9414C341.931 57.9414 343.872 78.1475 324.428 87.5635C324.15 94.8485 323.39 101.524 322.622 106.737C332.018 88.5356 347.375 92.2732 347.451 92.292C347.427 92.3654 341.604 110.058 321.931 111.08C321.21 115.271 320.624 117.78 320.623 117.784C318.315 124.152 315.742 129.93 312.971 135.176C327.447 116.273 344.569 123.577 344.626 123.602C344.622 123.608 334.105 144.091 309.83 140.754C306.725 145.934 303.416 150.529 299.973 154.604C320.471 142.588 333.652 156.033 333.708 156.09C333.708 156.09 316.847 170.544 296.044 158.978C291.813 163.401 287.428 167.112 283.013 170.227C304.112 160.883 317.035 174.707 317.035 174.707C317.035 174.707 296.941 191.204 273.173 176.225C248.97 188.827 226.608 185.784 226.608 185.784C223.213 189.518 219.957 189.268 217.657 187.918C218.123 188.37 218.562 188.836 218.977 189.314C250.913 182.719 259.906 209.785 259.906 209.785C238.337 214.536 230.282 201.009 221.555 192.979C222.961 195.471 223.878 198.178 224.417 200.978C229.823 201.926 231.39 206.957 231.396 206.979C231.396 206.979 227.733 207.797 224.876 204.224C225.021 205.794 225.061 207.378 225.019 208.955C230.69 211.671 230.323 217.615 230.323 217.615C230.275 217.607 225.905 216.888 224.892 211.348C224.874 211.572 224.856 211.797 224.835 212.021C224.579 214.766 224.093 217.462 223.475 220.003C227.754 222.369 227.468 227.025 227.468 227.025C227.468 227.025 223.883 226.459 222.958 221.984C222.563 223.4 222.131 224.754 221.681 226.026C221.884 226.032 222.094 226.043 222.31 226.061C221.902 226.866 221.426 227.521 220.919 228.057C220.184 229.911 219.427 231.535 218.717 232.848C217.095 237.747 212.374 238.119 212.37 238.119C212.371 238.093 212.446 233.776 217.757 232.521C218.254 231.614 218.78 230.544 219.306 229.339C217.059 230.65 214.789 230.35 214.755 230.346C214.762 230.313 215.659 226.404 220.613 226.047C221.431 223.783 222.193 221.238 222.79 218.538C219.639 222.187 215.178 221.582 215.155 221.579C215.167 221.527 216.368 216.325 223.216 216.421C223.483 214.952 223.698 213.449 223.84 211.931C223.95 210.747 224.016 209.556 224.032 208.367C222.475 213.208 217.888 214.334 217.87 214.339C217.87 214.339 217.081 208.763 224.011 206.402C223.961 204.994 223.834 203.595 223.618 202.218C223.409 201.793 223.21 201.333 223.024 200.832C223.142 200.836 223.259 200.843 223.374 200.851C222.624 197.17 221.188 193.691 218.819 190.696C218.536 190.487 218.249 190.287 217.961 190.095C218.856 195.072 215.961 198.763 215.938 198.792C215.938 198.792 211.491 194.396 215.541 187.375C215.473 187.319 215.404 187.263 215.335 187.208L215.891 186.508C214.928 185.496 214.367 184.402 214.367 183.784C212.669 184.001 211.064 183.653 209.396 183.038C213.515 189.05 211.067 195.514 211.047 195.567C211.047 195.567 203.975 191.962 206.471 181.786C201.019 179.273 194.172 175.821 181.56 179.784V177.784C197.229 172.284 210.45 178.284 210.45 178.284C211.43 174.284 216.816 173.784 223.671 180.284C223.776 180.3 247.403 183.863 272.411 171.058C262.603 139.99 284.072 128.784 284.072 128.784C284.084 128.814 292.805 150.674 276.012 169.102C282.896 165.145 289.802 159.885 296.277 152.909C279.928 127.858 296.669 112.763 296.678 112.755C296.678 112.755 310.098 130.756 297.502 151.567C303.013 145.39 308.184 137.929 312.724 128.924C290.425 108.879 302.934 89.8271 302.934 89.8271C302.934 89.8271 320.958 104.199 313.043 128.278C314.678 124.988 316.232 121.495 317.686 117.784C319.251 111.371 320.54 105.07 321.468 98.8828C301.551 87.5469 307.68 70.9229 307.68 70.9229C307.68 70.9229 320.735 77.0776 322.287 92.5879C322.993 86.1463 323.261 79.8304 322.986 73.6396C300.02 65.9228 303.348 47.5293 303.348 47.5293C303.348 47.5293 319.376 51.7968 322.725 69.542C322.364 65.2833 321.73 61.0851 320.789 56.9473C320.567 57.1007 320.341 57.253 320.109 57.4033C319.79 55.55 319.619 53.8249 319.57 52.2207C318.698 49.2016 317.651 46.216 316.415 43.2627C295.293 38.5398 296.061 21.9091 296.065 21.8115Z" fill="white"/>
<path d="M125.287 226.98C129.295 232.155 126.046 235.733 126.009 235.773C125.99 235.752 122.647 231.878 125.287 226.98Z" fill="white"/>
<path d="M222.463 226.98C225.103 231.878 221.76 235.752 221.741 235.773C221.704 235.733 218.455 232.155 222.463 226.98Z" fill="white"/>
<path d="M55.002 207.988C55.002 207.988 64.3055 179.989 97.5889 187.885C86.8297 194.488 79.9743 213.488 55.002 207.988Z" fill="white"/>
<path d="M249.862 187.885C283.146 179.989 292.449 207.988 292.449 207.988C267.477 213.488 260.622 194.488 249.862 187.885Z" fill="white"/>
<path d="M127.619 196.078C132.939 201.8 129.428 206.418 129.403 206.449C129.376 206.423 124.998 202.187 127.619 196.078Z" fill="white"/>
<path d="M220.131 196.078C222.752 202.187 218.374 206.423 218.347 206.449C218.322 206.418 214.811 201.8 220.131 196.078Z" fill="white"/>
<path d="M149.242 178.831C152.916 190.178 145.145 194.167 145.145 194.167C145.13 194.129 141.807 185.459 149.242 178.831Z" fill="white"/>
<path d="M157.314 178.831C160.988 190.178 153.217 194.167 153.217 194.167C153.202 194.129 149.879 185.459 157.314 178.831Z" fill="white"/>
<path d="M190.436 178.831C197.871 185.459 194.548 194.129 194.533 194.167C194.533 194.167 186.762 190.178 190.436 178.831Z" fill="white"/>
<path d="M198.51 178.831C205.945 185.459 202.622 194.129 202.607 194.167C202.607 194.167 194.836 190.178 198.51 178.831Z" fill="white"/>
<path d="M89.8203 134.784C89.8203 134.784 111.855 146.284 101.083 178.284C80.0413 159.296 89.8077 134.816 89.8203 134.784Z" fill="white"/>
<path d="M257.631 134.784C257.644 134.816 267.41 159.296 246.368 178.284C235.596 146.284 257.631 134.784 257.631 134.784Z" fill="white"/>
<path d="M112.518 133.284C112.518 133.284 134.553 144.784 123.78 176.784C102.739 157.796 112.505 133.316 112.518 133.284Z" fill="white"/>
<path d="M234.934 133.284C234.946 133.316 244.713 157.796 223.671 176.784C212.899 144.784 234.934 133.284 234.934 133.284Z" fill="white"/>
<path d="M132.157 167.522C132.202 167.506 140.349 164.526 145.885 175.019C136.049 175.983 132.166 167.541 132.157 167.522Z" fill="white"/>
<path d="M143.909 167.522C143.954 167.506 152.101 164.526 157.637 175.019C147.801 175.983 143.918 167.541 143.909 167.522Z" fill="white"/>
<path d="M190.113 175.019C195.649 164.526 203.796 167.506 203.841 167.522C203.832 167.541 199.949 175.983 190.113 175.019Z" fill="white"/>
<path d="M201.865 175.019C207.401 164.526 215.548 167.506 215.593 167.522C215.584 167.541 211.701 175.983 201.865 175.019Z" fill="white"/>
<path d="M34.8584 10.3809C34.9079 10.4593 41.718 21.3116 28.9287 32.6758C24.3462 18.716 34.8457 10.3909 34.8584 10.3809Z" fill="white"/>
<path d="M312.593 10.3809C312.605 10.3909 323.105 18.716 318.522 32.6758C305.733 21.3116 312.543 10.4593 312.593 10.3809Z" fill="white"/>
<path d="M60.5273 0C60.5273 0 60.6599 14.9272 41.3047 17.9238C45.276 1.50783 60.4545 0.00710686 60.5273 0Z" fill="white"/>
<path d="M286.924 0C286.997 0.00710686 302.175 1.50783 306.146 17.9238C286.791 14.9272 286.924 0 286.924 0Z" fill="white"/>
</svg>
